<svg width="106" height="120" viewBox="0 0 106 120" fill="none" xmlns="http://www.w3.org/2000/svg">
<path fill-rule="evenodd" clip-rule="evenodd" d="M66.9233 83.5284V96.1865V112.564V113.271V113.415V113.444V113.544L66.9209 113.599L66.9157 113.618C66.8983 113.683 66.8796 113.752 66.8708 113.796C66.8165 113.872 66.7651 113.966 66.7295 114.045C66.7077 114.068 66.6849 114.091 66.663 114.113C66.6478 114.121 66.6255 114.133 66.5998 114.148C66.5892 114.154 66.5781 114.16 66.5667 114.167C66.5258 114.181 66.4695 114.2 66.3943 114.225C66.38 114.224 66.3641 114.223 66.3466 114.222H66.2746C65.6408 114.203 65.0005 114.209 64.3582 114.216C64.0362 114.219 63.7137 114.222 63.3912 114.222H48.7148H28.9636H12.2976H7.68422C7.57795 114.222 7.47331 114.22 7.3692 114.219C7.16256 114.216 6.95803 114.212 6.74712 114.222H6.73376C6.66797 114.215 6.58623 114.218 6.53746 114.221C6.49736 114.21 6.45768 114.199 6.42168 114.188C6.34876 114.143 6.2814 114.103 6.21218 114.065C6.17369 113.989 6.09401 113.936 6.03632 113.912L6.01603 113.892C5.98816 113.866 5.96538 113.844 5.95419 113.833L5.94728 113.826C5.92761 113.791 5.90758 113.755 5.88995 113.722C5.87831 113.701 5.86772 113.681 5.85895 113.665C5.85281 113.643 5.84392 113.613 5.83381 113.579L5.82779 113.559C5.8215 113.537 5.81489 113.515 5.80827 113.493C5.8085 113.477 5.80854 113.461 5.80829 113.444L5.81002 113.415V113.357V113.141V112.261V108.888V96.7199V79.4773V59.7117V39.9605V22.8044V10.7806V7.49359V6.67183V6.48441V6.45557C5.81002 6.43989 5.81191 6.43558 5.81364 6.43165C5.8151 6.42833 5.81645 6.42527 5.81643 6.41586C5.82101 6.39809 5.82584 6.37929 5.83078 6.36002C5.8356 6.34125 5.84053 6.32204 5.84546 6.30291C5.90001 6.24116 5.95854 6.15656 5.9464 6.11073L5.95033 6.10287C5.97972 6.07442 6.0102 6.04745 6.04069 6.02307C6.08921 5.9855 6.12583 5.95524 6.15263 5.93128C6.16351 5.92467 6.17424 5.91818 6.1846 5.91193L6.20236 5.90121C6.24033 5.88342 6.28471 5.85763 6.32368 5.83317C6.40978 5.807 6.48659 5.7857 6.47319 5.7924C6.48878 5.78733 6.50308 5.78253 6.51617 5.77798H6.79037H7.81397H12.5716H29.3817H49.104H63.5786C63.8814 5.77798 64.1841 5.77638 64.4869 5.77478C65.0924 5.77157 65.6979 5.76837 66.3034 5.77798H66.3611C66.4031 5.77798 66.4528 5.78373 66.5039 5.78964C66.5149 5.79091 66.526 5.79219 66.5371 5.79342C66.5676 5.80382 66.5935 5.81219 66.6152 5.81875L66.6176 5.82008C66.6293 5.82669 66.6415 5.83355 66.6538 5.84052C66.6605 5.84767 66.6734 5.86142 66.69 5.87898C66.716 5.95501 66.7772 6.06911 66.849 6.093C66.8581 6.11489 66.8684 6.13955 66.8801 6.16724C66.8928 6.19833 66.9022 6.22568 66.9089 6.24956V6.26031C66.8657 6.32962 66.8792 6.3788 66.897 6.38614C66.901 6.38775 66.9051 6.38735 66.9089 6.38469V6.44116C66.9185 7.02614 66.9153 7.61112 66.9121 8.20034V8.2011C66.9105 8.49743 66.9089 8.79484 66.9089 9.09387V16.3167C66.9089 17.8305 68.2353 19.2722 69.7923 19.2001C71.3493 19.128 72.6757 17.9314 72.6757 16.3167V8.64695C72.6757 8.41097 72.6786 8.17442 72.6814 7.93764V7.93694C72.693 6.98773 72.7046 6.03483 72.5315 5.10038C71.9837 2.11608 69.2877 0.0977149 66.3322 0.0256303C64.4863 -0.0128263 62.634 7.56412e-06 60.7839 0.0128261H60.7837C59.8595 0.0192298 58.9358 0.0256303 58.0137 0.0256303H39.7907H20.126H7.68422H6.71828C4.45483 0.0544637 2.49412 1.07806 1.13894 2.88018C0.173003 4.1777 0 5.70589 0 7.2485V15.5526V30.5318V49.5333V70.0342V89.0645V104.159V112.535C0 113.991 0.129751 115.404 0.922682 116.702C2.16254 118.72 4.33949 119.931 6.68945 119.974H7.59771H19.8665H39.4879H57.783C58.7297 119.974 59.6764 119.981 60.6231 119.987C62.5166 120 64.41 120.013 66.3034 119.974C69.1724 119.917 71.7242 117.956 72.4306 115.145C72.6468 114.309 72.6468 113.487 72.6468 112.636V106.033V87.2336V83.4852C72.6468 81.9714 71.3205 80.5297 69.7635 80.6018C68.2497 80.7171 66.9233 81.9137 66.9233 83.5284ZM66.9089 6.38469V6.26031L66.911 6.25707C66.932 6.33617 66.9227 6.3751 66.9089 6.38469ZM66.8439 6.08074L66.849 6.093L66.8509 6.09361L66.8439 6.08074ZM66.7938 5.98883L66.7577 5.95069C66.733 5.92457 66.7091 5.89924 66.69 5.87898C66.6874 5.87131 66.6851 5.86402 66.6832 5.85726L66.6882 5.8601C66.712 5.88239 66.7355 5.90313 66.756 5.91938C66.7589 5.92487 66.7618 5.9306 66.7647 5.93657C66.7606 5.92818 66.7734 5.95152 66.7938 5.98883ZM66.7411 5.89101C66.7245 5.88111 66.7065 5.87064 66.6882 5.8601L66.6825 5.85484C66.6815 5.85102 66.6806 5.84737 66.6798 5.84393C66.6792 5.84092 66.6786 5.83807 66.6781 5.83538C66.6954 5.83883 66.7052 5.83913 66.709 5.83695C66.7178 5.84981 66.7284 5.86755 66.7411 5.89101ZM66.7411 5.89101C66.7458 5.89967 66.7508 5.90912 66.756 5.91938C66.7886 5.94507 66.8139 5.95951 66.8224 5.95098C66.8279 5.94546 66.7911 5.92086 66.7411 5.89101ZM66.7938 5.98883C66.8009 6.00176 66.8089 6.01637 66.8173 6.03191L66.8439 6.08074C66.8324 6.05314 66.8231 6.03034 66.8156 6.01182L66.7938 5.98883ZM6.3005 5.84027L6.28577 5.85006C6.29474 5.84558 6.26746 5.86201 6.22561 5.88721L6.22549 5.88728L6.20236 5.90121C6.19117 5.90646 6.18053 5.91101 6.17076 5.91462C6.19305 5.89349 6.20582 5.87853 6.21122 5.86868C6.22314 5.86474 6.23566 5.86068 6.24852 5.85657C6.2655 5.85115 6.28304 5.84565 6.3005 5.84027ZM6.3005 5.84027C6.30827 5.83787 6.31601 5.8355 6.32368 5.83317C6.35883 5.81111 6.38958 5.79014 6.40723 5.77714L6.39872 5.77687C6.37946 5.7886 6.34783 5.80886 6.3005 5.84027ZM5.86244 6.23766C5.85689 6.25876 5.85117 6.28078 5.84546 6.30291C5.83258 6.31749 5.81992 6.3308 5.80846 6.34202C5.80684 6.32965 5.80512 6.31889 5.8033 6.30962C5.81834 6.29039 5.83781 6.26661 5.86244 6.23766ZM5.86244 6.23766C5.8768 6.22079 5.89292 6.20216 5.91094 6.18165L5.9464 6.11073C5.94612 6.10967 5.9458 6.10863 5.94545 6.10762C5.92221 6.13034 5.89969 6.15396 5.87845 6.17793C5.87339 6.19637 5.868 6.21656 5.86244 6.23766ZM5.80603 113.485L5.80827 113.493C5.80783 113.521 5.80674 113.546 5.80562 113.563C5.80501 113.572 5.80439 113.579 5.80387 113.582L5.80381 113.582L5.80272 113.581C5.80235 113.571 5.80306 113.542 5.80603 113.485ZM5.80603 113.485L5.80693 113.468L5.80829 113.444C5.8068 113.344 5.79509 113.229 5.75235 113.242C5.73693 113.242 5.771 113.365 5.80603 113.485ZM6.17074 114.043C6.18467 114.05 6.19846 114.058 6.21218 114.065C6.21882 114.078 6.22424 114.092 6.22811 114.107C6.22378 114.098 6.20128 114.074 6.17074 114.043ZM5.98941 113.898C5.94954 113.894 5.95925 113.927 6.09836 114.006C6.12305 114.018 6.14709 114.03 6.17074 114.043C6.13199 114.004 6.08029 113.954 6.03632 113.912C6.03118 113.91 6.02621 113.908 6.02147 113.906C6.01265 113.903 6.00459 113.901 5.99757 113.9C5.99071 113.892 5.98331 113.884 5.97553 113.875C5.97772 113.879 5.97988 113.883 5.98201 113.886C5.98452 113.89 5.98698 113.894 5.98941 113.898ZM5.98941 113.898C6.01278 113.936 6.03198 113.963 6.04069 113.963C6.05045 113.963 6.03011 113.936 5.99757 113.9C5.99466 113.899 5.99194 113.899 5.98941 113.898ZM6.55965 114.227C6.58471 114.226 6.6179 114.225 6.66061 114.222H6.67503H6.73376C6.80046 114.229 6.85075 114.245 6.83362 114.28C6.82663 114.294 6.69421 114.264 6.55965 114.227ZM6.53746 114.221C6.54485 114.223 6.55225 114.225 6.55965 114.227C6.47026 114.231 6.48416 114.225 6.53746 114.221ZM66.5341 114.236C66.5266 114.225 66.5651 114.194 66.6178 114.159C66.57 114.207 66.5341 114.242 66.5341 114.236ZM66.4456 114.23C66.4616 114.223 66.4787 114.216 66.496 114.208C66.4822 114.216 66.4686 114.224 66.4556 114.232C66.4525 114.231 66.4491 114.231 66.4456 114.23ZM66.9312 113.561C66.9375 113.501 66.9449 113.454 66.9522 113.458C66.9576 113.458 66.9468 113.502 66.9312 113.561ZM6.27136 114.136C6.27136 114.124 6.31666 114.144 6.37427 114.174C6.31329 114.155 6.27136 114.14 6.27136 114.136ZM5.88518 6.16861C5.88297 6.17166 5.88075 6.1747 5.87851 6.17772C5.8941 6.12097 5.90654 6.08074 5.91094 6.08074C5.92414 6.08378 5.93341 6.08927 5.93938 6.09666C5.92403 6.11431 5.91027 6.13356 5.89652 6.15282C5.89275 6.1581 5.88898 6.16337 5.88518 6.16861ZM5.87782 6.17864C5.86571 6.19494 5.85306 6.2107 5.83885 6.2249C5.85123 6.20944 5.86426 6.19397 5.87782 6.17864ZM66.8456 6.05388C66.8422 6.04682 66.839 6.0399 66.8358 6.03318L66.8945 6.09515C66.8848 6.09758 66.8751 6.09805 66.8656 6.09684C66.8589 6.08233 66.8521 6.06783 66.8456 6.05388ZM85.9825 38.8792L78.5001 32.1753C77.3035 31.1085 77.4909 29.191 78.5001 28.0954C79.5958 26.8988 81.4556 27.0862 82.5801 28.0954C83.0343 28.4991 83.4885 28.9064 83.9427 29.3138L83.9444 29.3153C84.3979 29.722 84.8514 30.1287 85.3049 30.5318C87.2896 32.308 89.2707 34.0841 91.2518 35.8603L91.2663 35.8733C93.2522 37.6538 95.2382 39.4343 97.2277 41.2147L104.71 47.9186C105.82 48.9134 105.82 51.0038 104.71 51.9986C104.256 52.4022 103.802 52.8094 103.348 53.2166C102.894 53.624 102.439 54.0313 101.985 54.4351C99.9958 56.2156 98.0098 57.996 96.0239 59.7765L96.0014 59.7967L95.9933 59.8039C94.0176 61.5753 92.0418 63.3466 90.0625 65.118L82.5801 71.8219C81.3691 72.9031 79.6967 72.932 78.5001 71.8219C77.39 70.8127 77.3756 68.7511 78.5001 67.7419C78.9544 67.3381 79.4087 66.9307 79.8629 66.5233C80.3169 66.1161 80.7709 65.709 81.2249 65.3054C83.213 63.5262 85.1975 61.7471 87.1819 59.9679L87.1883 59.9621C89.1736 58.1822 91.1589 56.4024 93.1477 54.6225L98.3517 49.96C98.2029 49.8271 98.0541 49.6944 97.9053 49.5621C95.9206 47.786 93.9395 46.0098 91.9584 44.2337L91.9439 44.2207C89.958 42.4402 87.972 40.6597 85.9825 38.8792ZM53.9337 61.038L61.4161 67.7419C62.6127 68.8232 62.4253 70.7262 61.4161 71.8219C60.3204 73.0185 58.4606 72.8311 57.3361 71.8219C56.8819 71.4181 56.4276 71.0107 55.9733 70.6033L55.9704 70.6006C55.5173 70.1944 55.0643 69.7881 54.6113 69.3854C52.6215 67.6047 50.6353 65.8239 48.649 64.0431C46.6634 62.2629 44.6778 60.4827 42.6885 58.7025L35.2062 51.9986C34.0961 51.0038 34.0961 48.9134 35.2062 47.9186C35.6604 47.5149 36.1145 47.1076 36.5687 46.7002C37.0228 46.293 37.4769 45.8858 37.9309 45.4822C39.9177 43.7041 41.9009 41.9261 43.8841 40.1481L43.8913 40.1416C45.8776 38.3608 47.8639 36.58 49.8537 34.7992L57.3361 28.0954C58.5471 27.0141 60.2195 26.9853 61.4161 28.0954C62.5262 29.1045 62.5406 31.1662 61.4161 32.1753C60.9619 32.5791 60.5077 32.9864 60.0535 33.3938L60.0522 33.395C59.5986 33.8018 59.1449 34.2086 58.6913 34.6118C56.7011 36.3929 54.7146 38.1739 52.728 39.955C50.7427 41.7349 48.7574 43.5148 46.7685 45.2947L41.5645 49.9573C41.6179 50.0049 41.6713 50.0526 41.7247 50.1002C41.8201 50.1853 41.9155 50.2703 42.0109 50.3551C44.0002 52.1353 45.9858 53.9155 47.9714 55.6957C49.9577 57.4765 51.9439 59.2573 53.9337 61.038ZM39.9132 99.1347C39.9168 99.0518 39.9204 98.9689 39.9204 98.8824V98.5069C39.918 98.5167 39.9159 98.5258 39.9139 98.5342C39.917 98.5023 39.9186 98.4638 39.916 98.4235C39.9146 98.4093 39.9133 98.3961 39.9121 98.3837C39.9105 98.3721 39.9085 98.3605 39.906 98.349C39.8744 98.175 39.8211 98.0097 39.7675 97.8435C39.7253 97.7127 39.6829 97.5814 39.6508 97.4449C39.6448 97.4344 39.6386 97.4234 39.6321 97.4119C39.56 97.2965 39.5023 97.1956 39.4447 97.0803C39.4043 97.0169 39.3593 96.9534 39.3144 96.89C39.2766 96.8367 39.2388 96.7835 39.2038 96.7302C38.9985 96.5727 38.7484 96.2981 38.5816 96.1046C38.5718 96.0985 38.5616 96.0922 38.5508 96.0855C38.4499 96.0134 38.349 95.9414 38.2337 95.8837C38.1596 95.8365 38.0761 95.7957 37.9934 95.7553C37.9378 95.7281 37.8826 95.701 37.8309 95.6724C37.6919 95.6464 37.5527 95.5988 37.412 95.5508C37.2652 95.5006 37.1167 95.4499 36.965 95.4223C36.946 95.4169 36.9275 95.412 36.9093 95.4075C36.8569 95.4064 36.8028 95.4036 36.7487 95.4007C36.6802 95.3971 36.6118 95.3935 36.5469 95.3935C36.4604 95.3935 36.3775 95.3971 36.2946 95.4007C36.2117 95.4043 36.1288 95.4079 36.0423 95.4079C35.9586 95.4054 35.9106 95.4038 35.8881 95.4025C35.7647 95.4363 35.633 95.4792 35.544 95.5081C35.5015 95.522 35.4687 95.5327 35.4512 95.5377C35.3983 95.5509 35.3455 95.5702 35.2913 95.5899C35.2412 95.6082 35.19 95.6268 35.1365 95.6416C34.971 95.7499 34.7946 95.8473 34.6182 95.9446C34.5253 95.9958 34.4324 96.0471 34.3411 96.0999C34.313 96.1168 34.2882 96.1316 34.2665 96.1445C34.2098 96.195 34.1506 96.2501 34.1241 96.2747C34.1135 96.2847 34.1081 96.2896 34.1104 96.2874C34.068 96.3213 33.8855 96.4853 33.7485 96.6262C33.7883 96.5646 33.8031 96.5377 33.7358 96.6394C33.6465 96.7322 33.5801 96.8126 33.5914 96.8352C33.5957 96.8439 33.6287 96.8018 33.6661 96.7488C33.5883 96.8759 33.5106 96.9925 33.4328 97.1091C33.3765 97.203 33.3262 97.297 33.2781 97.3869C33.259 97.4227 33.2402 97.4579 33.2215 97.4922C33.1914 97.6057 33.1553 97.715 33.1193 97.8238C33.0686 97.9774 33.0182 98.1298 32.9859 98.2913C32.9741 98.3384 32.9672 98.395 32.9601 98.4525C32.9595 98.4576 32.9588 98.4628 32.9582 98.468C32.9578 98.4803 32.9575 98.4935 32.9571 98.5076V99.3149C32.9571 99.3198 32.9571 99.3246 32.957 99.3292C32.9571 99.3293 32.9571 99.3293 32.9571 99.3293C32.9859 99.4447 33.0147 99.5744 33.0436 99.7042C33.0652 99.7835 33.0904 99.8592 33.1156 99.9348C33.1409 100.011 33.1661 100.086 33.1877 100.166C33.1968 100.187 33.2115 100.22 33.2274 100.257C33.2549 100.308 33.2892 100.372 33.3244 100.439C33.3985 100.578 33.4768 100.726 33.5049 100.771C33.5626 100.886 33.6347 100.987 33.7067 101.088C33.7225 101.113 33.7363 101.135 33.7485 101.154C33.8796 101.29 34.0681 101.464 34.1755 101.562C34.2155 101.599 34.2443 101.626 34.2546 101.636C34.2713 101.652 34.2863 101.667 34.2999 101.68C34.3295 101.697 34.3594 101.713 34.387 101.729C34.4387 101.757 34.482 101.781 34.4997 101.795C34.5269 101.813 34.8001 101.985 35.0094 102.1C35.0325 102.107 35.0595 102.116 35.0908 102.126C35.2061 102.169 35.3214 102.213 35.4512 102.242L35.8784 102.34C36.0127 102.309 36.2213 102.331 36.4099 102.351C36.5366 102.364 36.6542 102.377 36.7343 102.371C36.7772 102.368 36.8247 102.371 36.8682 102.376C36.8622 102.374 36.856 102.373 36.8496 102.371C36.8784 102.364 36.9108 102.357 36.9432 102.35C36.9757 102.342 37.0082 102.335 37.0371 102.328C37.2182 102.288 37.3923 102.234 37.5643 102.18C37.6387 102.157 37.7127 102.134 37.7867 102.112C37.7977 102.108 37.8081 102.105 37.8179 102.102C37.9147 102.048 38.0237 101.993 38.1327 101.939C38.1504 101.929 38.1812 101.912 38.2201 101.892C38.3089 101.845 38.4398 101.776 38.5513 101.708C38.5708 101.68 38.6148 101.63 38.695 101.55C38.7382 101.506 38.7851 101.463 38.8319 101.42C38.8788 101.377 38.9257 101.333 38.9689 101.29C38.993 101.274 39.0928 101.178 39.1743 101.09C39.1778 101.085 39.1814 101.079 39.1852 101.074C39.3438 100.814 39.5023 100.54 39.6609 100.266C39.6715 100.248 39.6809 100.231 39.6893 100.217C39.7099 100.15 39.7272 100.088 39.733 100.065C39.8052 99.8238 39.8574 99.5931 39.9062 99.3557C39.9069 99.2804 39.9101 99.2075 39.9132 99.1347ZM45.6803 99.1336C45.5106 103.264 42.5608 107.13 38.3922 107.922C34.5141 108.643 30.6071 107.057 28.5167 103.654C26.4262 100.266 26.9164 95.9269 29.3961 92.8994C31.7316 90.0448 35.927 88.8915 39.4158 90.1313C43.0793 91.4326 45.5354 94.7878 45.6813 98.6582C45.6866 98.7327 45.6886 98.8074 45.6872 98.8824C45.6887 98.9673 45.6864 99.0511 45.6803 99.1336ZM39.6033 100.425C39.5916 100.425 39.6363 100.334 39.6785 100.251C39.6501 100.34 39.6186 100.425 39.6033 100.425ZM39.2861 100.944C39.2922 100.956 39.2445 101.014 39.1841 101.08C39.2358 101.004 39.2861 100.934 39.2861 100.944ZM36.2049 102.413C36.2165 102.416 36.1839 102.41 36.0722 102.385C36.1376 102.397 36.1932 102.41 36.2049 102.413ZM35.2494 102.198C35.2343 102.213 35.1439 102.172 35.0307 102.111C35.1338 102.148 35.2554 102.192 35.2494 102.198ZM34.1104 101.535C34.1104 101.524 34.1898 101.593 34.2658 101.66C34.1828 101.611 34.1104 101.562 34.1104 101.535ZM33.6058 100.958C33.6119 100.952 33.685 101.06 33.7444 101.15C33.6534 101.054 33.5913 100.978 33.6058 100.958ZM32.9138 98.6806C32.9155 98.6767 32.9171 98.6726 32.9186 98.6685C32.9171 98.6732 32.9155 98.6773 32.9138 98.6806ZM33.6661 96.7488C33.6946 96.7083 33.7257 96.6615 33.7485 96.6262C33.7442 96.6306 33.74 96.635 33.7358 96.6394C33.7239 96.6572 33.7096 96.6791 33.6923 96.7055C33.6836 96.72 33.6748 96.7345 33.6661 96.7488ZM34.3988 96.0423C34.3988 96.0423 34.3769 96.0563 34.3456 96.0765C34.3744 96.0531 34.3952 96.0387 34.3988 96.0423ZM35.9007 95.3991C35.9094 95.3988 35.9199 95.3985 35.9316 95.3981C36.0339 95.3948 36.2311 95.3884 36.2153 95.3647C36.1893 95.3322 36.0525 95.3582 35.9007 95.3991ZM39.8995 98.6164C39.8968 98.6212 39.899 98.5984 39.9139 98.5342C39.9095 98.5796 39.9021 98.6117 39.8995 98.6164Z" fill="#24F2AD"/>
</svg>
