<svg width="24" height="25" viewBox="0 0 24 25" fill="none" xmlns="http://www.w3.org/2000/svg">
<path fill-rule="evenodd" clip-rule="evenodd" d="M9.5912 12.0046L18.5483 2.67425C18.7733 2.44381 18.768 2.0633 18.5376 1.8275L16.9358 0.18758C16.7055 -0.0482256 16.3305 -0.0535849 16.1055 0.176861L5.1662 11.5705C5.04835 11.6885 4.99478 11.8492 5.00549 12.0046C5.00013 12.1654 5.0537 12.3208 5.1662 12.4387L16.1055 23.8378C16.3305 24.0682 16.7055 24.0629 16.9358 23.8271L18.5376 22.1871C18.768 21.9513 18.7733 21.5708 18.5483 21.3404L9.5912 12.0046Z" fill="#24F2AD"/>
<mask id="mask0" mask-type="alpha" maskUnits="userSpaceOnUse" x="5" y="0" width="14" height="25">
<path fill-rule="evenodd" clip-rule="evenodd" d="M9.5912 12.0046L18.5483 2.67425C18.7733 2.44381 18.768 2.0633 18.5376 1.8275L16.9358 0.18758C16.7055 -0.0482256 16.3305 -0.0535849 16.1055 0.176861L5.1662 11.5705C5.04835 11.6885 4.99478 11.8492 5.00549 12.0046C5.00013 12.1654 5.0537 12.3208 5.1662 12.4387L16.1055 23.8378C16.3305 24.0682 16.7055 24.0629 16.9358 23.8271L18.5376 22.1871C18.768 21.9513 18.7733 21.5708 18.5483 21.3404L9.5912 12.0046Z" fill="white"/>
</mask>
<g mask="url(#mask0)">
<rect width="24" height="24" fill="#24F2AD"/>
</g>
</svg>
