<svg width="28" height="153" viewBox="0 0 28 153" fill="none" xmlns="http://www.w3.org/2000/svg">
<g clip-path="url(#clip0)">
<path d="M28 0L28 22.2168L25.7289 22.2168L25.7289 12.4512L-5.44258e-07 12.4512L-4.27536e-07 9.78089L25.7289 9.78089L25.7289 -9.92727e-08L28 0Z" fill="white"/>
<path d="M28 33.6458L28 52.9939L25.7289 52.9939L25.7289 36.316L15.6081 36.316L15.6081 51.9411L13.337 51.9411L13.337 36.316L2.2711 36.316L2.2711 53.1923L-8.54406e-07 53.1923L0 33.6458L28 33.6458Z" fill="white"/>
<path d="M28 66.5437L28 69.214L2.2711 69.214L2.2711 84.9153L-8.03048e-07 84.9153L0 66.5437L28 66.5437Z" fill="white"/>
<path d="M28 98.8618L28 101.532L2.2711 101.532L2.2711 117.233L-8.03048e-07 117.233L0 98.8618L28 98.8618Z" fill="white"/>
<path d="M28 139.023L28 141.998L-1.10452e-06 152.985L-9.79132e-07 150.116L8.70332 146.698L8.70332 133.942L-1.24726e-07 130.569L0 127.716L28 139.023ZM10.9744 134.781L10.9744 145.813L25.3326 140.396L10.9744 134.781Z" fill="white"/>
</g>
<defs>
<clipPath id="clip0">
<rect width="153" height="28" fill="white" transform="translate(28) rotate(90)"/>
</clipPath>
</defs>
</svg>
