<svg width="35" height="35" viewBox="0 0 35 35" fill="none" xmlns="http://www.w3.org/2000/svg">
<circle cx="17.5" cy="17.5" r="17.5" fill="#24F2AD"/>
<path d="M28.9996 11.9002C28.9996 11.4117 28.8057 10.9698 28.4963 10.6329C28.4911 10.6262 28.49 10.6183 28.4844 10.6116C28.4792 10.6057 28.4721 10.6033 28.4665 10.5978C28.1147 10.2316 27.619 10 27.0669 10H7.93306C7.38099 10 6.88522 10.2316 6.53264 10.5978C6.52749 10.6033 6.51993 10.6057 6.51478 10.612C6.50922 10.6183 6.50806 10.6266 6.50291 10.6333C6.19396 10.9702 6 11.4117 6 11.9002V23.0997C6 23.6 6.20189 24.0526 6.52471 24.3923C6.53106 24.3994 6.53305 24.4081 6.54019 24.4148C6.54256 24.4172 6.54534 24.4176 6.54774 24.42C6.89954 24.7767 7.38933 25 7.93309 25H27.0669C27.6107 25 28.1009 24.7763 28.4523 24.4196C28.4547 24.4176 28.4574 24.4169 28.4598 24.4149C28.4666 24.4086 28.4685 24.3999 28.4749 24.3932C28.7981 24.0534 29 23.6005 29 23.0997V11.9002H28.9996ZM21.4716 16.9081L28.0997 11.4405C28.1647 11.581 28.2032 11.736 28.2032 11.9002V23.0997C28.2032 23.2481 28.1723 23.3889 28.1187 23.5187L21.4716 16.9081ZM27.0669 10.7832C27.2339 10.7832 27.3913 10.821 27.5345 10.885L17.5 19.1619L7.46547 10.885C7.60866 10.8211 7.76612 10.7832 7.93306 10.7832H27.0669ZM6.88128 23.5184C6.82772 23.389 6.79679 23.2477 6.79679 23.0993V11.9002C6.79679 11.7361 6.83528 11.581 6.90029 11.4406L13.5284 16.9081L6.88128 23.5184ZM7.93306 24.2164C7.74906 24.2164 7.57769 24.169 7.42383 24.0925L14.1407 17.4128L17.2442 19.9728C17.3179 20.034 17.4091 20.0648 17.5 20.0648C17.5908 20.0648 17.682 20.034 17.7558 19.9728L20.8592 17.4128L27.5761 24.0925C27.4222 24.169 27.2509 24.2164 27.0669 24.2164H7.93306Z" fill="white"/>
</svg>
