<svg width="23" height="23" viewBox="0 0 23 23" fill="none" xmlns="http://www.w3.org/2000/svg">
<g clip-path="url(#clip0)">
<path d="M11.5009 0C5.15014 0 0.000976562 5.14917 0.000976562 11.5C0.000976562 17.8507 5.15014 23 11.5009 23C17.8518 23 23.0008 17.8506 23.0008 11.5C23.0009 5.14917 17.8518 0 11.5009 0ZM17.5737 16.7797L16.6529 17.7007C16.4885 17.8649 16.0072 17.9673 15.9917 17.9673C13.0788 17.9927 10.274 16.8485 8.2133 14.7876C6.14691 12.72 5.0014 9.90528 5.03216 6.98253C5.03216 6.9812 5.13758 6.51363 5.30183 6.35095L6.22256 5.43007C6.5595 5.09158 7.20672 4.93861 7.66012 5.0903L7.8538 5.1549C8.30588 5.30645 8.78051 5.8063 8.90541 6.26681L9.36858 7.96674C9.49348 8.42857 9.32501 9.08561 8.98818 9.42254L8.37338 10.0374C8.97699 12.2721 10.7303 14.0257 12.9653 14.6308L13.5799 14.0158C13.9184 13.6773 14.5752 13.509 15.036 13.6337L16.7357 14.0985C17.1963 14.2251 17.6961 14.6967 17.8476 15.1486L17.9122 15.3451C18.0624 15.7972 17.9106 16.4443 17.5737 16.7797Z" fill="#24F2AD"/>
</g>
<defs>
<clipPath id="clip0">
<rect width="23" height="23" fill="white"/>
</clipPath>
</defs>
</svg>
